<svg width="20" height="16" viewBox="0 0 20 16" fill="none" xmlns="http://www.w3.org/2000/svg">
<path d="M11.0714 14.6913C11.0714 14.9138 11.0086 15.1313 10.8908 15.3164C10.7731 15.5014 10.6058 15.6456 10.41 15.7307C10.2142 15.8159 9.99881 15.8381 9.79098 15.7947C9.58315 15.7513 9.39225 15.6442 9.24241 15.4868C9.09257 15.3295 8.99053 15.129 8.94919 14.9108C8.90785 14.6926 8.92907 14.4664 9.01016 14.2608C9.09125 14.0553 9.22858 13.8796 9.40477 13.7559C9.58095 13.6323 9.7881 13.5663 10 13.5663C10.2841 13.5663 10.5567 13.6849 10.7576 13.8958C10.9585 14.1068 11.0714 14.393 11.0714 14.6913ZM19.739 3.72259C16.9931 1.35763 13.5514 0.0651245 10 0.0651245C6.44858 0.0651245 3.00693 1.35763 0.261044 3.72259C0.188526 3.78513 0.12845 3.86206 0.0842456 3.94898C0.0400413 4.0359 0.0125745 4.13111 0.00341335 4.22918C-0.00574784 4.32725 0.00357606 4.42625 0.0308527 4.52053C0.0581293 4.61482 0.102824 4.70254 0.162386 4.77868C0.221948 4.85483 0.29521 4.91791 0.377989 4.96433C0.460769 5.01074 0.551444 5.03958 0.644838 5.0492C0.833457 5.06863 1.0217 5.00859 1.16816 4.88228C3.65844 2.73794 6.77946 1.56604 10 1.56604C13.2205 1.56604 16.3416 2.73794 18.8318 4.88228C18.9783 5.00859 19.1665 5.06863 19.3552 5.0492C19.5438 5.02978 19.7173 4.93247 19.8376 4.77868C19.9579 4.6249 20.0151 4.42724 19.9966 4.22918C19.9781 4.03113 19.8854 3.8489 19.739 3.72259ZM16.8748 7.07603C14.9189 5.45005 12.4973 4.56535 10.0027 4.56535C7.50802 4.56535 5.08647 5.45005 3.13059 7.07603C2.98212 7.1996 2.88648 7.38004 2.86472 7.57766C2.84295 7.77528 2.89684 7.97388 3.01452 8.12978C3.13221 8.28567 3.30405 8.3861 3.49225 8.40895C3.68045 8.43181 3.86959 8.37523 4.01806 8.25165C5.72145 6.83587 7.83024 6.06556 10.0027 6.06556C12.1751 6.06556 14.2839 6.83587 15.9873 8.25165C16.0608 8.31285 16.1451 8.35824 16.2353 8.38524C16.3255 8.41223 16.4199 8.4203 16.5131 8.40899C16.6063 8.39767 16.6964 8.36719 16.7784 8.31928C16.8604 8.27137 16.9326 8.20698 16.9908 8.12978C17.0491 8.05259 17.0923 7.9641 17.1181 7.86937C17.1438 7.77463 17.1514 7.67551 17.1407 7.57766C17.1299 7.4798 17.1009 7.38514 17.0552 7.29907C17.0096 7.213 16.9483 7.13721 16.8748 7.07603ZM13.9945 10.4285C12.8343 9.54315 11.4369 9.06627 10.0027 9.06627C8.56844 9.06627 7.17104 9.54315 6.01085 10.4285C5.85764 10.5456 5.75502 10.7219 5.72555 10.9184C5.69608 11.115 5.74218 11.3158 5.85371 11.4767C5.96524 11.6375 6.13306 11.7453 6.32026 11.7762C6.50745 11.8072 6.69869 11.7588 6.85189 11.6417C7.7675 10.9424 8.87053 10.5658 10.0027 10.5658C11.1348 10.5658 12.2379 10.9424 13.1535 11.6417C13.2293 11.6996 13.3153 11.7414 13.4065 11.7645C13.4978 11.7875 13.5924 11.7915 13.6851 11.7762C13.7778 11.7609 13.8667 11.7266 13.9467 11.6752C14.0268 11.6238 14.0964 11.5563 14.1516 11.4767C14.2069 11.397 14.2466 11.3067 14.2686 11.2109C14.2906 11.1151 14.2944 11.0157 14.2798 10.9184C14.2652 10.8211 14.2325 10.7277 14.1836 10.6437C14.1346 10.5596 14.0704 10.4865 13.9945 10.4285Z" fill=""/>
</svg>
