<svg width="18" height="14" viewBox="0 0 18 14" fill="none" xmlns="http://www.w3.org/2000/svg">
<path d="M7.90498 9.7013L15.6172 1.98906C15.6769 1.92935 15.7478 1.88198 15.8258 1.84967C15.9039 1.81735 15.9875 1.80072 16.0719 1.80072C16.1564 1.80072 16.24 1.81735 16.318 1.84967C16.396 1.88198 16.4669 1.92935 16.5266 1.98906C16.5863 2.04877 16.6337 2.11966 16.666 2.19768C16.6983 2.2757 16.715 2.35932 16.715 2.44376C16.715 2.52821 16.6983 2.61183 16.666 2.68984C16.6337 2.76786 16.5863 2.83875 16.5266 2.89846L8.81438 10.6107C8.75467 10.6704 8.68378 10.7178 8.60576 10.7501C8.52774 10.7824 8.44413 10.799 8.35968 10.799C8.27523 10.799 8.19162 10.7824 8.1136 10.7501C8.03558 10.7178 7.96469 10.6704 7.90498 10.6107C7.84527 10.551 7.7979 10.4801 7.76558 10.4021C7.73327 10.3241 7.71664 10.2404 7.71664 10.156C7.71664 10.0716 7.73327 9.98794 7.76558 9.90992C7.7979 9.8319 7.84527 9.76101 7.90498 9.7013ZM9.00237 4.37182C9.56063 4.37111 10.1153 4.46147 10.6444 4.63934C10.7248 4.66782 10.81 4.68004 10.8951 4.67528C10.9802 4.67052 11.0635 4.64887 11.1402 4.61161C11.2168 4.57434 11.2853 4.52219 11.3416 4.4582C11.398 4.39421 11.441 4.31966 11.4682 4.23888C11.4954 4.1581 11.5063 4.07272 11.5002 3.98769C11.4941 3.90267 11.4712 3.8197 11.4327 3.74363C11.3943 3.66756 11.3411 3.59989 11.2762 3.54458C11.2114 3.48927 11.1361 3.44741 11.0549 3.42145C10.0308 3.07617 8.93604 2.99476 7.87206 3.18476C6.80807 3.37475 5.80918 3.83001 4.96779 4.50842C4.12641 5.18683 3.4697 6.06648 3.05843 7.06599C2.64715 8.0655 2.4946 9.15259 2.61486 10.2267C2.63225 10.3838 2.70691 10.529 2.82458 10.6345C2.94225 10.74 3.09468 10.7985 3.25273 10.7987C3.27603 10.7987 3.30013 10.7987 3.32423 10.7947C3.4936 10.7759 3.64858 10.6906 3.75509 10.5576C3.8616 10.4246 3.91092 10.2547 3.8922 10.0853C3.87129 9.89536 3.86083 9.70441 3.86087 9.51332C3.86236 8.15016 4.40453 6.84327 5.36843 5.87937C6.33232 4.91548 7.63921 4.37331 9.00237 4.37182ZM17.0151 5.41619C16.9766 5.34107 16.9236 5.27428 16.8593 5.21962C16.795 5.16496 16.7205 5.1235 16.6402 5.09761C16.5598 5.07173 16.4752 5.06192 16.3911 5.06875C16.3069 5.07558 16.225 5.09892 16.1498 5.13742C16.0747 5.17593 16.0079 5.22885 15.9533 5.29317C15.8986 5.3575 15.8572 5.43195 15.8313 5.5123C15.8054 5.59264 15.7956 5.67729 15.8024 5.76143C15.8092 5.84556 15.8326 5.92752 15.8711 6.00264C16.3466 6.93636 16.6273 7.95697 16.6964 9.00251C16.7654 10.0481 16.6213 11.0967 16.2728 12.0849L1.72394 12.0792C1.31802 10.9157 1.19612 9.67194 1.3684 8.45171C1.54068 7.23148 2.00214 6.07011 2.71433 5.06441C3.42651 4.0587 4.36878 3.23781 5.46258 2.67015C6.55639 2.10249 7.77004 1.80452 9.00237 1.80107H9.07306C10.27 1.8086 11.4484 2.09756 12.513 2.6446C12.5884 2.68605 12.6712 2.71197 12.7568 2.72083C12.8423 2.72968 12.9287 2.72128 13.0109 2.69613C13.0931 2.67099 13.1695 2.6296 13.2354 2.57442C13.3013 2.51924 13.3555 2.4514 13.3948 2.3749C13.434 2.29841 13.4575 2.21482 13.4638 2.12908C13.4702 2.04334 13.4593 1.9572 13.4318 1.87575C13.4042 1.7943 13.3606 1.71921 13.3036 1.65491C13.2465 1.59061 13.1771 1.53842 13.0995 1.50142C11.4968 0.680489 9.68457 0.359354 7.89734 0.579558C6.11011 0.799761 4.43007 1.55117 3.07454 2.73659C1.71901 3.92201 0.75036 5.48689 0.293886 7.22882C-0.162589 8.97075 -0.0858825 10.8096 0.514082 12.5074C0.602708 12.759 0.767068 12.9769 0.984573 13.1313C1.20208 13.2856 1.46205 13.3688 1.72876 13.3694H16.2752C16.5417 13.3696 16.8018 13.2869 17.0193 13.1327C17.2367 12.9786 17.4009 12.7606 17.489 12.509C17.8944 11.3561 18.0614 10.1329 17.9799 8.91358C17.8984 7.69422 17.5702 6.5041 17.0151 5.41538V5.41619Z" fill=""/>
</svg>
