<svg width="18" height="18" viewBox="0 0 18 18" fill="none" xmlns="http://www.w3.org/2000/svg">
<path d="M14.0135 9.06532C14.0181 11.75 13.4949 14.4093 12.4737 16.8922C12.4241 17.0147 12.3392 17.1196 12.2297 17.1936C12.1203 17.2675 11.9912 17.3072 11.8591 17.3074C11.7737 17.3066 11.6891 17.2897 11.6099 17.2576C11.5291 17.2245 11.4557 17.1757 11.3937 17.1141C11.3318 17.0525 11.2826 16.9794 11.2489 16.8987C11.2153 16.8181 11.1979 16.7317 11.1977 16.6443C11.1975 16.557 11.2146 16.4705 11.2478 16.3897C12.2023 14.0661 12.6905 11.5774 12.6846 9.06532C12.6846 8.8891 12.7546 8.72011 12.8792 8.5955C13.0038 8.4709 13.1728 8.4009 13.3491 8.4009C13.5253 8.4009 13.6943 8.4709 13.8189 8.5955C13.9435 8.72011 14.0135 8.8891 14.0135 9.06532ZM9.36255 5.74322C9.82982 5.74355 10.2918 5.8423 10.7184 6.03305C11.1449 6.2238 11.5265 6.50226 11.8383 6.85031C11.8961 6.91691 11.9665 6.97136 12.0455 7.01048C12.1245 7.0496 12.2104 7.07262 12.2984 7.07819C12.3864 7.08376 12.4746 7.07177 12.5578 7.04292C12.6411 7.01407 12.7178 6.96894 12.7835 6.91015C12.8492 6.85136 12.9025 6.7801 12.9404 6.7005C12.9782 6.6209 12.9999 6.53457 13.0041 6.44653C13.0082 6.35849 12.9948 6.27049 12.9647 6.18767C12.9345 6.10486 12.8881 6.02887 12.8283 5.96414C12.2003 5.26233 11.374 4.76773 10.4587 4.54577C9.54343 4.3238 8.58235 4.38493 7.70258 4.72106C6.82282 5.0572 6.06582 5.6525 5.53175 6.42822C4.99767 7.20394 4.71168 8.12352 4.71161 9.06532C4.71152 10.9784 4.22572 12.8602 3.29972 14.5343C3.2574 14.6107 3.23053 14.6946 3.22065 14.7813C3.21077 14.8681 3.21807 14.9559 3.24214 15.0398C3.2662 15.1237 3.30655 15.202 3.36089 15.2704C3.41523 15.3387 3.48249 15.3956 3.55884 15.4379C3.63519 15.4802 3.71912 15.5071 3.80585 15.517C3.89258 15.5269 3.9804 15.5196 4.06431 15.4955C4.14822 15.4715 4.22657 15.4311 4.29488 15.3768C4.36319 15.3224 4.42013 15.2552 4.46245 15.1788C5.49732 13.3073 6.04027 11.2038 6.04045 9.06532C6.04045 8.18424 6.39045 7.33925 7.01347 6.71624C7.63648 6.09323 8.48147 5.74322 9.36255 5.74322ZM9.36255 0.427863C8.38175 0.426683 7.40795 0.592962 6.48312 0.919533C6.31994 0.980541 6.18726 1.10319 6.11363 1.26108C6.04001 1.41896 6.03134 1.59945 6.08949 1.76366C6.14764 1.92788 6.26796 2.06268 6.42453 2.13905C6.58111 2.21542 6.76141 2.22724 6.92662 2.17196C8.02919 1.78319 9.2089 1.66444 10.3668 1.82566C11.5248 1.98688 12.6272 2.42338 13.5816 3.09855C14.5361 3.77373 15.3147 4.6679 15.8523 5.70608C16.3898 6.74427 16.6706 7.89621 16.6712 9.06532C16.672 10.8042 16.4786 12.5377 16.0948 14.2337C16.0558 14.4051 16.0863 14.5851 16.1797 14.734C16.2731 14.883 16.4218 14.9889 16.5931 15.0285C16.6416 15.0397 16.6912 15.0453 16.7409 15.0451C16.8916 15.0451 17.0377 14.9938 17.1554 14.8998C17.2731 14.8058 17.3554 14.6746 17.3887 14.5277C17.7946 12.7352 17.9996 10.9031 18 9.06532C17.9976 6.77526 17.0868 4.5797 15.4675 2.96039C13.8482 1.34107 11.6526 0.430281 9.36255 0.427863ZM4.49069 3.61874C4.55575 3.56055 4.60871 3.49012 4.64655 3.41147C4.68438 3.33281 4.70636 3.24748 4.71122 3.16033C4.71608 3.07318 4.70372 2.98593 4.67486 2.90356C4.646 2.82118 4.6012 2.7453 4.54301 2.68024C4.48483 2.61519 4.41439 2.56223 4.33574 2.52439C4.25709 2.48655 4.17175 2.46457 4.0846 2.45972C3.99746 2.45486 3.9102 2.46721 3.82783 2.49607C3.74546 2.52493 3.66958 2.56974 3.60452 2.62792C2.69939 3.43854 1.97519 4.43074 1.47907 5.53989C0.982946 6.64904 0.726043 7.85027 0.725092 9.06532C0.726951 10.1164 0.50024 11.1553 0.0606724 12.11C0.0242444 12.1893 0.00379055 12.275 0.000478768 12.3622C-0.00283301 12.4494 0.0110621 12.5364 0.0413708 12.6182C0.102582 12.7835 0.226933 12.9176 0.387069 12.9912C0.547204 13.0648 0.730006 13.0717 0.895261 13.0105C1.06052 12.9493 1.19469 12.8249 1.26825 12.6648C1.78805 11.5361 2.05614 10.3079 2.05393 9.06532C2.05481 8.03724 2.27226 7.02089 2.69211 6.08245C3.11196 5.14401 3.72479 4.30455 4.49069 3.61874ZM8.19317 15.1066C8.11388 15.0701 8.02819 15.0497 7.94099 15.0463C7.85379 15.043 7.7668 15.0569 7.68497 15.0872C7.60314 15.1175 7.52809 15.1637 7.46409 15.223C7.40009 15.2823 7.3484 15.3537 7.31198 15.4329C7.15252 15.7818 6.97977 16.1298 6.78958 16.4661C6.7471 16.5425 6.7201 16.6265 6.71013 16.7133C6.70016 16.8001 6.70742 16.8881 6.73149 16.9721C6.75556 17.0561 6.79597 17.1346 6.8504 17.2029C6.90484 17.2713 6.97222 17.3283 7.0487 17.3706C7.14692 17.4254 7.25762 17.454 7.37012 17.4536C7.48874 17.4537 7.60522 17.422 7.70746 17.3618C7.80969 17.3016 7.89395 17.2152 7.95149 17.1114C8.15413 16.7452 8.34515 16.364 8.51956 15.9886C8.55613 15.9092 8.57669 15.8235 8.58007 15.7362C8.58345 15.6489 8.56958 15.5618 8.53927 15.4799C8.50895 15.398 8.46278 15.3228 8.40339 15.2588C8.344 15.1947 8.27257 15.143 8.19317 15.1066ZM9.36255 8.4009C9.18633 8.4009 9.01733 8.4709 8.89273 8.5955C8.76813 8.72011 8.69813 8.8891 8.69813 9.06532C8.69861 10.3539 8.53705 11.6375 8.21725 12.8857C8.17336 13.0563 8.19901 13.2374 8.28856 13.3891C8.37811 13.5408 8.52423 13.6507 8.6948 13.6947C8.74909 13.7085 8.80489 13.7154 8.86091 13.7154C9.00812 13.7153 9.15113 13.6663 9.26748 13.5761C9.38383 13.4859 9.46693 13.3596 9.50373 13.2171C9.85195 11.8604 10.0277 10.4652 10.027 9.06449C10.0267 8.88842 9.95665 8.71963 9.83207 8.59521C9.70749 8.47079 9.53862 8.4009 9.36255 8.4009Z" fill=""/>
</svg>
