<svg width="18" height="22" viewBox="0 0 18 22" fill="none" xmlns="http://www.w3.org/2000/svg">
<path d="M18 13.8067V20.3429C18 20.5599 17.9138 20.768 17.7604 20.9214C17.6069 21.0749 17.3988 21.1611 17.1818 21.1611H0.818182C0.601187 21.1611 0.393079 21.0749 0.23964 20.9214C0.0862012 20.768 0 20.5599 0 20.3429V13.8067C0 13.5897 0.0862012 13.3816 0.23964 13.2281C0.393079 13.0747 0.601187 12.9885 0.818182 12.9885C1.03518 12.9885 1.24328 13.0747 1.39672 13.2281C1.55016 13.3816 1.63636 13.5897 1.63636 13.8067V19.5247H16.3636V13.8067C16.3636 13.5897 16.4498 13.3816 16.6033 13.2281C16.7567 13.0747 16.9648 12.9885 17.1818 12.9885C17.3988 12.9885 17.6069 13.0747 17.7604 13.2281C17.9138 13.3816 18 13.5897 18 13.8067ZM4.90909 17.0794H13.0909C13.3079 17.0794 13.516 16.9932 13.6695 16.8397C13.8229 16.6863 13.9091 16.4782 13.9091 16.2612C13.9091 16.0442 13.8229 15.8361 13.6695 15.6827C13.516 15.5292 13.3079 15.443 13.0909 15.443H4.90909C4.6921 15.443 4.48399 15.5292 4.33055 15.6827C4.17711 15.8361 4.09091 16.0442 4.09091 16.2612C4.09091 16.4782 4.17711 16.6863 4.33055 16.8397C4.48399 16.9932 4.6921 17.0794 4.90909 17.0794ZM5.40818 11.6589L13.3108 13.7739C13.3801 13.7929 13.4517 13.8025 13.5235 13.8026C13.7209 13.801 13.911 13.7281 14.0589 13.5974C14.2068 13.4667 14.3024 13.287 14.3282 13.0913C14.354 12.8956 14.3082 12.6972 14.1992 12.5327C14.0902 12.3681 13.9254 12.2485 13.7352 12.1959L5.82955 10.0757C5.72279 10.0363 5.60899 10.0196 5.49541 10.0266C5.38182 10.0337 5.27096 10.0643 5.1699 10.1166C5.06884 10.169 4.9798 10.2418 4.90848 10.3305C4.83715 10.4191 4.78512 10.5217 4.75569 10.6317C4.72626 10.7416 4.72009 10.8564 4.73756 10.9689C4.75504 11.0814 4.79579 11.1889 4.85719 11.2847C4.9186 11.3805 4.99932 11.4625 5.09419 11.5253C5.18907 11.5882 5.29601 11.6306 5.40818 11.6497V11.6589ZM7.29511 6.55245L14.3806 10.6434C14.4736 10.6971 14.5764 10.732 14.6829 10.746C14.7895 10.76 14.8978 10.7529 15.0016 10.7251C15.1054 10.6973 15.2027 10.6493 15.2879 10.5838C15.3732 10.5184 15.4447 10.4368 15.4984 10.3437C15.6063 10.1559 15.6353 9.93303 15.5792 9.72388C15.523 9.51472 15.3862 9.33637 15.1987 9.22791L8.1133 5.13188C8.02017 5.07269 7.91604 5.03294 7.80715 5.01503C7.69827 4.99712 7.58689 5.00142 7.47971 5.02767C7.37253 5.05392 7.27177 5.10159 7.18349 5.16779C7.0952 5.23399 7.02123 5.31737 6.966 5.41291C6.91078 5.50844 6.87546 5.61416 6.86215 5.7237C6.84884 5.83324 6.85783 5.94435 6.88858 6.05032C6.91932 6.1563 6.97119 6.25496 7.04105 6.34038C7.11092 6.42579 7.19734 6.49619 7.29511 6.54734V6.55245ZM16.2266 7.882C16.3026 7.95815 16.3929 8.01858 16.4923 8.05985C16.5916 8.10111 16.6982 8.1224 16.8058 8.12249C16.9134 8.12259 17.0199 8.10149 17.1194 8.0604C17.2188 8.01931 17.3092 7.95904 17.3853 7.88302C17.4615 7.807 17.5219 7.71673 17.5632 7.61736C17.6045 7.51798 17.6257 7.41146 17.6258 7.30386C17.6259 7.19626 17.6048 7.08969 17.5637 6.99025C17.5227 6.8908 17.4624 6.80042 17.3864 6.72427L11.6008 0.945862C11.4462 0.798759 11.2403 0.717854 11.027 0.720395C10.8136 0.722936 10.6097 0.808724 10.4587 0.959465C10.3077 1.11021 10.2215 1.31398 10.2186 1.52733C10.2157 1.74068 10.2962 1.94673 10.4431 2.10154L16.2266 7.882Z" fill=""/>
</svg>
