<svg width="18" height="20" viewBox="0 0 18 20" fill="none" xmlns="http://www.w3.org/2000/svg">
<path d="M17.2067 8.85816L17.2081 8.85947C17.301 8.95171 17.3747 9.0615 17.4248 9.18246C17.4749 9.30342 17.5005 9.43314 17.5 9.56408V9.56586V18.5659C17.5 18.6322 17.4736 18.6958 17.4268 18.7426C17.3799 18.7895 17.3163 18.8159 17.25 18.8159H11.25C11.1837 18.8159 11.1201 18.7895 11.0732 18.7426C11.0263 18.6957 11 18.6322 11 18.5659V13.3159V12.8159H10.5H7.5H7V13.3159V18.5659C7 18.6322 6.97366 18.6957 6.92678 18.7426C6.87989 18.7895 6.81631 18.8159 6.75 18.8159H0.750009C0.683704 18.8159 0.620116 18.7895 0.573233 18.7426C0.526349 18.6957 0.500009 18.6322 0.500009 18.5659L0.500013 9.56586L0.500006 9.56408C0.49954 9.43314 0.525108 9.30343 0.575224 9.18246C0.62534 9.0615 0.699003 8.95171 0.791933 8.85948L0.79325 8.85816L8.29313 1.35827C8.29317 1.35824 8.2932 1.3582 8.29324 1.35816C8.48075 1.17084 8.73495 1.06561 9 1.06561C9.26505 1.06561 9.51925 1.17084 9.70676 1.35816C9.7068 1.3582 9.70683 1.35824 9.70687 1.35827L17.2067 8.85816ZM18 18.5659V9.56586L7.93969 1.00461L0.439696 8.50461C0.299732 8.64353 0.188783 8.8089 0.1133 8.99108C0.0378174 9.17327 -0.00069249 9.36865 9.42513e-06 9.56586V18.5659C9.42513e-06 18.7648 0.0790271 18.9555 0.219679 19.0962C0.360331 19.2368 0.551096 19.3159 0.750009 19.3159H6.75C6.94891 19.3159 7.13968 19.2368 7.28033 19.0962C7.42098 18.9555 7.5 18.7648 7.5 18.5659V13.8159V13.3159H8H10H10.5V13.8159V18.5659C10.5 18.7648 10.579 18.9555 10.7197 19.0962C10.8603 19.2368 11.0511 19.3159 11.25 19.3159H17.25C17.4489 19.3159 17.6397 19.2368 17.7803 19.0962C17.921 18.9555 18 18.7648 18 18.5659ZM16.5 18.3159H17V17.8159V9.56586V9.35875L16.8535 9.2123L9.35355 1.7123L9 1.35875L8.64645 1.7123L1.14645 9.2123L1.00001 9.35875V9.56586V17.8159V18.3159H1.50001H6H6.5V17.8159V12.5659C6.5 12.4996 6.52634 12.436 6.57323 12.3891C6.62011 12.3422 6.6837 12.3159 6.75 12.3159H11.25C11.3163 12.3159 11.3799 12.3422 11.4268 12.3891C11.4737 12.436 11.5 12.4995 11.5 12.5659V17.8159V18.3159H12H16.5Z" stroke="" />
</svg>
