<svg width="18" height="20" viewBox="0 0 18 20" fill="none" xmlns="http://www.w3.org/2000/svg">
<path d="M17.898 18.1835C16.5812 15.715 14.5521 13.945 12.1841 13.106C13.3555 12.3498 14.2655 11.1977 14.7745 9.82639C15.2835 8.45513 15.3634 6.94059 15.0018 5.51536C14.6402 4.09013 13.8571 2.83301 12.7729 1.93708C11.6886 1.04114 10.3632 0.555908 9 0.555908C7.63684 0.555908 6.31136 1.04114 5.22712 1.93708C4.14289 2.83301 3.35984 4.09013 2.99824 5.51536C2.63664 6.94059 2.71647 8.45513 3.22548 9.82639C3.7345 11.1977 4.64454 12.3498 5.81586 13.106C3.44786 13.9441 1.41876 15.7141 0.102048 18.1835C0.0537623 18.2688 0.0217345 18.3638 0.0078546 18.4629C-0.00602527 18.5619 -0.00147602 18.6629 0.0212339 18.76C0.0439439 18.8571 0.0843545 18.9482 0.140082 19.0281C0.195809 19.108 0.265723 19.1749 0.3457 19.225C0.425677 19.2751 0.514097 19.3073 0.605742 19.3198C0.697387 19.3322 0.790402 19.3246 0.879298 19.2974C0.968193 19.2703 1.05117 19.224 1.12333 19.1615C1.19549 19.099 1.25538 19.0215 1.29945 18.9335C2.92826 15.881 5.80722 14.0585 9 14.0585C12.1928 14.0585 15.0717 15.881 16.7006 18.9335C16.7446 19.0215 16.8045 19.099 16.8767 19.1615C16.9488 19.224 17.0318 19.2703 17.1207 19.2974C17.2096 19.3246 17.3026 19.3322 17.3943 19.3198C17.4859 19.3073 17.5743 19.2751 17.6543 19.225C17.7343 19.1749 17.8042 19.108 17.8599 19.0281C17.9156 18.9482 17.9561 18.8571 17.9788 18.76C18.0015 18.6629 18.006 18.5619 17.9921 18.4629C17.9783 18.3638 17.9462 18.2688 17.898 18.1835ZM4.15852 7.30846C4.15852 6.27011 4.44247 5.25507 4.97445 4.39172C5.50644 3.52836 6.26258 2.85545 7.14725 2.45809C8.03191 2.06073 9.00537 1.95676 9.94453 2.15934C10.8837 2.36191 11.7464 2.86192 12.4234 3.59615C13.1005 4.33037 13.5616 5.26583 13.7485 6.28424C13.9353 7.30264 13.8394 8.35823 13.4729 9.31755C13.1065 10.2769 12.486 11.0968 11.6898 11.6737C10.8936 12.2506 9.95755 12.5585 9 12.5585C7.71638 12.557 6.48573 12.0034 5.57807 11.0191C4.67042 10.0349 4.15989 8.70039 4.15852 7.30846Z" fill=""/>
</svg>
