<svg width="19" height="18" viewBox="0 0 19 18" fill="none" xmlns="http://www.w3.org/2000/svg">
<path d="M17.1708 10.3043C17.0987 10.2357 17.0082 10.1871 16.9091 10.1636C16.81 10.1401 16.706 10.1426 16.6083 10.1709C15.5358 10.4784 14.3953 10.5041 13.3085 10.2455C12.2217 9.98688 11.2293 9.45353 10.437 8.7023C9.64464 7.95106 9.08212 7.01008 8.80935 5.97964C8.53657 4.94919 8.56376 3.86788 8.88801 2.85093C8.91811 2.75826 8.92099 2.65957 8.89635 2.56547C8.87171 2.47137 8.82048 2.38541 8.74817 2.31685C8.67586 2.24829 8.58521 2.19972 8.48596 2.17636C8.38671 2.153 8.28262 2.15573 8.18489 2.18426C6.70202 2.61496 5.40019 3.47812 4.46465 4.65093C3.64651 5.68083 3.14746 6.90664 3.02357 8.19064C2.89969 9.47464 3.15588 10.766 3.76336 11.9195C4.37084 13.0731 5.30555 14.0432 6.46247 14.7208C7.61938 15.3985 8.95267 15.7568 10.3125 15.7556C11.899 15.7602 13.4433 15.2712 14.7085 14.3636C15.9454 13.4766 16.8558 12.2422 17.31 10.8363C17.3398 10.7439 17.3426 10.6457 17.318 10.552C17.2935 10.4583 17.2426 10.3727 17.1708 10.3043ZM14.0321 13.5116C12.8407 14.3624 11.3652 14.7766 9.87727 14.6778C8.38936 14.579 6.98916 13.974 5.93442 12.974C4.87969 11.974 4.24142 10.6465 4.13712 9.23572C4.03281 7.82497 4.46949 6.42597 5.36676 5.29626C5.95134 4.5643 6.70711 3.97096 7.57458 3.56293C7.52516 3.89174 7.50025 4.22346 7.50004 4.55559C7.50209 6.39383 8.27317 8.15623 9.64409 9.45606C11.015 10.7559 12.8738 11.487 14.8125 11.4889C15.1636 11.4888 15.5141 11.4652 15.8616 11.4183C15.4309 12.2409 14.8046 12.9575 14.0321 13.5116Z" fill="black"/>
</svg>
