<svg width="43" height="22" viewBox="0 0 43 22" fill="none" xmlns="http://www.w3.org/2000/svg">
<mask id="path-1-outside-1_135_23" maskUnits="userSpaceOnUse" x="-1" y="6" width="45" height="14" fill="black">
<rect fill="white" x="-1" y="6" width="45" height="14"/>
<path d="M1.55139 18L1.55139 16.8494L7.12525 9.69034V9.58807L1.73036 9.58807L1.73036 8.18182L9.06843 8.18182L9.06843 9.38352L3.64798 16.4915V16.5938L9.24741 16.5938V18L1.55139 18ZM25.8993 8.18182L22.2686 18H20.7346L17.1039 8.18182H18.7402L21.4505 16.0057H21.5527L24.263 8.18182L25.8993 8.18182ZM33.9092 18V16.8494L39.4831 9.69034V9.58807L34.0882 9.58807V8.18182L41.4262 8.18182V9.38352L36.0058 16.4915V16.5938L41.6052 16.5938V18L33.9092 18Z"/>
</mask>
<path d="M1.55139 18H-0.448614L-0.448614 20H1.55139L1.55139 18ZM1.55139 16.8494L-0.0267116 15.6208L-0.448614 16.1627L-0.448614 16.8494H1.55139ZM7.12525 9.69034L8.70335 10.919L9.12525 10.3771V9.69034L7.12525 9.69034ZM7.12525 9.58807L9.12525 9.58807L9.12525 7.58807H7.12525V9.58807ZM1.73036 9.58807H-0.269637L-0.269637 11.5881H1.73036L1.73036 9.58807ZM1.73036 8.18182L1.73036 6.18182L-0.269637 6.18182L-0.269637 8.18182H1.73036ZM9.06843 8.18182H11.0684V6.18182L9.06843 6.18182V8.18182ZM9.06843 9.38352L10.6588 10.5963L11.0684 10.0591V9.38352H9.06843ZM3.64798 16.4915L2.05764 15.2787L1.64798 15.8159L1.64798 16.4915H3.64798ZM3.64798 16.5938H1.64798L1.64798 18.5938H3.64798L3.64798 16.5938ZM9.24741 16.5938H11.2474V14.5938H9.24741V16.5938ZM9.24741 18L9.24741 20H11.2474L11.2474 18H9.24741ZM3.55139 18L3.55139 16.8494H-0.448614L-0.448614 18H3.55139ZM3.12948 18.0781L8.70335 10.919L5.54715 8.46168L-0.0267116 15.6208L3.12948 18.0781ZM9.12525 9.69034V9.58807L5.12525 9.58807V9.69034L9.12525 9.69034ZM7.12525 7.58807L1.73036 7.58807L1.73036 11.5881L7.12525 11.5881L7.12525 7.58807ZM3.73036 9.58807L3.73036 8.18182L-0.269637 8.18182L-0.269637 9.58807L3.73036 9.58807ZM1.73036 10.1818L9.06843 10.1818L9.06843 6.18182L1.73036 6.18182L1.73036 10.1818ZM7.06843 8.18182V9.38352L11.0684 9.38352L11.0684 8.18182L7.06843 8.18182ZM7.47809 8.17075L2.05764 15.2787L5.23831 17.7043L10.6588 10.5963L7.47809 8.17075ZM1.64798 16.4915V16.5938L5.64798 16.5938V16.4915L1.64798 16.4915ZM3.64798 18.5938L9.24741 18.5938V14.5938L3.64798 14.5938L3.64798 18.5938ZM7.24741 16.5938V18H11.2474V16.5938H7.24741ZM9.24741 16L1.55139 16L1.55139 20L9.24741 20L9.24741 16ZM25.8993 8.18182L27.7752 8.87549L28.7713 6.18182L25.8993 6.18182V8.18182ZM22.2686 18V20H23.6614L24.1445 18.6937L22.2686 18ZM20.7346 18L18.8587 18.6937L19.3418 20H20.7346V18ZM17.1039 8.18182V6.18182L14.2319 6.18182L15.228 8.87549L17.1039 8.18182ZM18.7402 8.18182L20.6301 7.52717L20.164 6.18182H18.7402V8.18182ZM21.4505 16.0057L19.5606 16.6603L20.0267 18.0057H21.4505L21.4505 16.0057ZM21.5527 16.0057L21.5527 18.0057H22.9765L23.4426 16.6603L21.5527 16.0057ZM24.263 8.18182V6.18182L22.8392 6.18182L22.3731 7.52717L24.263 8.18182ZM24.0235 7.48814L20.3928 17.3063L24.1445 18.6937L27.7752 8.87549L24.0235 7.48814ZM22.2686 16H20.7346L20.7346 20H22.2686L22.2686 16ZM22.6104 17.3063L18.9797 7.48814L15.228 8.87549L18.8587 18.6937L22.6104 17.3063ZM17.1039 10.1818H18.7402V6.18182L17.1039 6.18182V10.1818ZM16.8504 8.83646L19.5606 16.6603L23.3403 15.351L20.6301 7.52717L16.8504 8.83646ZM21.4505 18.0057H21.5527L21.5527 14.0057H21.4505L21.4505 18.0057ZM23.4426 16.6603L26.1528 8.83646L22.3731 7.52717L19.6629 15.351L23.4426 16.6603ZM24.263 10.1818L25.8993 10.1818V6.18182H24.263V10.1818ZM33.9092 18H31.9092V20H33.9092V18ZM33.9092 16.8494L32.3311 15.6208L31.9092 16.1627L31.9092 16.8494H33.9092ZM39.4831 9.69034L41.0612 10.919L41.4831 10.3771V9.69034H39.4831ZM39.4831 9.58807H41.4831V7.58807L39.4831 7.58807V9.58807ZM34.0882 9.58807H32.0882L32.0882 11.5881H34.0882L34.0882 9.58807ZM34.0882 8.18182V6.18182H32.0882V8.18182H34.0882ZM41.4262 8.18182L43.4262 8.18182V6.18182L41.4262 6.18182V8.18182ZM41.4262 9.38352L43.0166 10.5963L43.4262 10.0591V9.38352L41.4262 9.38352ZM36.0058 16.4915L34.4154 15.2787L34.0058 15.8159V16.4915H36.0058ZM36.0058 16.5938H34.0058V18.5938H36.0058V16.5938ZM41.6052 16.5938H43.6052V14.5938L41.6052 14.5938V16.5938ZM41.6052 18V20H43.6052V18H41.6052ZM35.9092 18V16.8494H31.9092V18H35.9092ZM35.4873 18.0781L41.0612 10.919L37.905 8.46168L32.3311 15.6208L35.4873 18.0781ZM41.4831 9.69034V9.58807H37.4831V9.69034H41.4831ZM39.4831 7.58807L34.0882 7.58807L34.0882 11.5881L39.4831 11.5881L39.4831 7.58807ZM36.0882 9.58807V8.18182H32.0882V9.58807H36.0882ZM34.0882 10.1818L41.4262 10.1818V6.18182L34.0882 6.18182V10.1818ZM39.4262 8.18182V9.38352L43.4262 9.38352V8.18182L39.4262 8.18182ZM39.8359 8.17075L34.4154 15.2787L37.5961 17.7043L43.0166 10.5963L39.8359 8.17075ZM34.0058 16.4915V16.5938H38.0058V16.4915H34.0058ZM36.0058 18.5938L41.6052 18.5938V14.5938L36.0058 14.5938V18.5938ZM39.6052 16.5938V18H43.6052V16.5938H39.6052ZM41.6052 16L33.9092 16V20L41.6052 20V16Z" fill="#0077FF" fill-opacity="0.5" mask="url(#path-1-outside-1_135_23)"/>
</svg>
