<svg width="18" height="17" viewBox="0 0 18 17" fill="none" xmlns="http://www.w3.org/2000/svg">
<path d="M17.3077 15.5177H16.6154V1.67149C16.6154 1.48788 16.5424 1.31179 16.4126 1.18196C16.2828 1.05213 16.1067 0.979187 15.9231 0.979187H11.0769C10.8933 0.979187 10.7172 1.05213 10.5874 1.18196C10.4576 1.31179 10.3846 1.48788 10.3846 1.67149V5.13303H6.23077C6.04716 5.13303 5.87107 5.20597 5.74123 5.33581C5.6114 5.46564 5.53846 5.64173 5.53846 5.82534V9.28688H2.07692C1.89331 9.28688 1.71722 9.35982 1.58739 9.48965C1.45755 9.61949 1.38462 9.79558 1.38462 9.97919V15.5177H0.692308C0.508696 15.5177 0.332605 15.5906 0.202772 15.7204C0.0729393 15.8503 0 16.0263 0 16.21C0 16.3936 0.0729393 16.5697 0.202772 16.6995C0.332605 16.8293 0.508696 16.9023 0.692308 16.9023H17.3077C17.4913 16.9023 17.6674 16.8293 17.7972 16.6995C17.9271 16.5697 18 16.3936 18 16.21C18 16.0263 17.9271 15.8503 17.7972 15.7204C17.6674 15.5906 17.4913 15.5177 17.3077 15.5177ZM11.7692 2.3638H15.2308V15.5177H11.7692V2.3638ZM6.92308 6.51765H10.3846V15.5177H6.92308V6.51765ZM2.76923 10.6715H5.53846V15.5177H2.76923V10.6715Z" fill=""/>
</svg>
