<svg width="19" height="19" viewBox="0 0 19 19" fill="none" xmlns="http://www.w3.org/2000/svg">
<path d="M17.8281 11.3779H14.8655C14.8871 11.1934 14.8981 11.0079 14.8984 10.8223C14.8984 9.49624 14.3428 8.22447 13.3539 7.28679C12.3649 6.34911 11.0236 5.82232 9.625 5.82232C8.2264 5.82232 6.88508 6.34911 5.89612 7.28679C4.90716 8.22447 4.35156 9.49624 4.35156 10.8223C4.35189 11.0079 4.3629 11.1934 4.38452 11.3779H1.42188C1.26647 11.3779 1.11744 11.4364 1.00755 11.5406C0.89767 11.6448 0.835938 11.7861 0.835938 11.9334C0.835938 12.0808 0.89767 12.2221 1.00755 12.3263C1.11744 12.4305 1.26647 12.489 1.42188 12.489H17.8281C17.9835 12.489 18.1326 12.4305 18.2424 12.3263C18.3523 12.2221 18.4141 12.0808 18.4141 11.9334C18.4141 11.7861 18.3523 11.6448 18.2424 11.5406C18.1326 11.4364 17.9835 11.3779 17.8281 11.3779ZM5.52344 10.8223C5.52236 10.2875 5.63763 9.75829 5.86204 9.26765C6.08645 8.77701 6.41518 8.33553 6.82768 7.9708C7.24018 7.60607 7.72759 7.32592 8.25944 7.14788C8.7913 6.96983 9.35617 6.8977 9.91876 6.936C10.4813 6.97431 11.0295 7.12222 11.5291 7.37049C12.0287 7.61876 12.4689 7.96206 12.8222 8.37893C13.1755 8.7958 13.4343 9.27728 13.5825 9.79328C13.7307 10.3093 13.765 10.8487 13.6833 11.3779H5.56665C5.53829 11.1939 5.52385 11.0082 5.52344 10.8223ZM16.0703 14.7112C16.0703 14.8586 16.0086 14.9999 15.8987 15.104C15.7888 15.2082 15.6398 15.2668 15.4844 15.2668H3.76562C3.61022 15.2668 3.46119 15.2082 3.3513 15.104C3.24142 14.9999 3.17969 14.8586 3.17969 14.7112C3.17969 14.5639 3.24142 14.4226 3.3513 14.3184C3.46119 14.2142 3.61022 14.1557 3.76562 14.1557H15.4844C15.6398 14.1557 15.7888 14.2142 15.8987 14.3184C16.0086 14.4226 16.0703 14.5639 16.0703 14.7112ZM5.58496 3.84871C5.51542 3.71684 5.50398 3.56418 5.55315 3.42431C5.60232 3.28444 5.70808 3.16881 5.84717 3.10288C5.98625 3.03694 6.14726 3.02609 6.29478 3.07272C6.4423 3.11934 6.56425 3.21962 6.63379 3.35149L7.21973 4.4626C7.25416 4.5279 7.27469 4.59898 7.28015 4.6718C7.28561 4.74462 7.27589 4.81775 7.25154 4.88701C7.22719 4.95626 7.18869 5.0203 7.13824 5.07545C7.0878 5.1306 7.02639 5.17579 6.95752 5.20843C6.88865 5.24108 6.81368 5.26055 6.73688 5.26573C6.66007 5.2709 6.58295 5.26168 6.5099 5.2386C6.43686 5.21551 6.36933 5.17901 6.31116 5.13118C6.25299 5.08335 6.20533 5.02512 6.1709 4.95982L5.58496 3.84871ZM1.4834 7.24038C1.51786 7.17511 1.56555 7.11692 1.62374 7.06913C1.68193 7.02134 1.74948 6.9849 1.82253 6.96187C1.89558 6.93885 1.9727 6.9297 2.04948 6.93495C2.12627 6.9402 2.20121 6.95974 2.27002 6.99246L3.44189 7.54802C3.58088 7.61395 3.68655 7.72954 3.73565 7.86934C3.78476 8.00915 3.77328 8.16172 3.70374 8.2935C3.63419 8.42528 3.51229 8.52547 3.36484 8.57203C3.21739 8.61859 3.05647 8.6077 2.91748 8.54177L1.74561 7.98621C1.6767 7.9536 1.61526 7.90843 1.56478 7.85328C1.51431 7.79814 1.47579 7.7341 1.45144 7.66483C1.42709 7.59556 1.41738 7.52242 1.42286 7.44959C1.42834 7.37676 1.44891 7.30567 1.4834 7.24038ZM15.5459 8.29316C15.4765 8.16137 15.4651 8.00884 15.5143 7.86911C15.5635 7.72938 15.6691 7.61388 15.8081 7.54802L16.98 6.99246C17.0488 6.95981 17.1237 6.94034 17.2005 6.93515C17.2772 6.92995 17.3543 6.93915 17.4273 6.9622C17.5003 6.98525 17.5679 7.02171 17.626 7.0695C17.6842 7.11729 17.7318 7.17548 17.7662 7.24073C17.8007 7.30598 17.8212 7.37702 17.8267 7.4498C17.8322 7.52257 17.8225 7.59566 17.7982 7.66489C17.7738 7.73411 17.7354 7.79812 17.685 7.85325C17.6346 7.90838 17.5732 7.95356 17.5044 7.98621L16.3325 8.54177C16.2637 8.57446 16.1887 8.59397 16.1119 8.59917C16.0351 8.60437 15.9579 8.59516 15.8849 8.57207C15.8118 8.54898 15.7443 8.51246 15.6861 8.4646C15.6279 8.41674 15.5803 8.35849 15.5459 8.29316ZM12.0303 4.4626L12.6162 3.35149C12.6858 3.21962 12.8077 3.11934 12.9552 3.07272C13.1027 3.02609 13.2637 3.03694 13.4028 3.10288C13.5419 3.16881 13.6477 3.28444 13.6969 3.42431C13.746 3.56418 13.7346 3.71684 13.665 3.84871L13.0791 4.95982C13.0096 5.0917 12.8876 5.19197 12.7401 5.2386C12.5926 5.28522 12.4316 5.27437 12.2925 5.20843C12.1534 5.1425 12.0476 5.02688 11.9985 4.88701C11.9493 4.74714 11.9607 4.59447 12.0303 4.4626Z" fill=""/>
</svg>
