<svg width="18" height="21" viewBox="0 0 18 21" fill="none" xmlns="http://www.w3.org/2000/svg">
<path d="M18 13.0863V19.6226C18 19.8396 17.9138 20.0477 17.7604 20.2011C17.6069 20.3546 17.3988 20.4408 17.1818 20.4408H0.818182C0.601187 20.4408 0.393079 20.3546 0.23964 20.2011C0.0862012 20.0477 0 19.8396 0 19.6226V13.0863C0 12.8693 0.0862012 12.6612 0.23964 12.5078C0.393079 12.3543 0.601187 12.2681 0.818182 12.2681C1.03518 12.2681 1.24328 12.3543 1.39672 12.5078C1.55016 12.6612 1.63636 12.8693 1.63636 13.0863V18.8044H16.3636V13.0863C16.3636 12.8693 16.4498 12.6612 16.6033 12.5078C16.7567 12.3543 16.9648 12.2681 17.1818 12.2681C17.3988 12.2681 17.6069 12.3543 17.7604 12.5078C17.9138 12.6612 18 12.8693 18 13.0863ZM4.90909 16.359H13.0909C13.3079 16.359 13.516 16.2728 13.6695 16.1194C13.8229 15.966 13.9091 15.7579 13.9091 15.5409C13.9091 15.3239 13.8229 15.1158 13.6695 14.9623C13.516 14.8089 13.3079 14.7227 13.0909 14.7227H4.90909C4.6921 14.7227 4.48399 14.8089 4.33055 14.9623C4.17711 15.1158 4.09091 15.3239 4.09091 15.5409C4.09091 15.7579 4.17711 15.966 4.33055 16.1194C4.48399 16.2728 4.6921 16.359 4.90909 16.359ZM5.40818 10.9386L13.3108 13.0536C13.3801 13.0726 13.4517 13.0822 13.5235 13.0822C13.7209 13.0807 13.911 13.0078 14.0589 12.8771C14.2068 12.7464 14.3024 12.5666 14.3282 12.371C14.354 12.1753 14.3082 11.9769 14.1992 11.8123C14.0902 11.6478 13.9254 11.5282 13.7352 11.4755L5.82955 9.35541C5.72279 9.31598 5.60899 9.29925 5.49541 9.30629C5.38182 9.31333 5.27096 9.34399 5.1699 9.39631C5.06884 9.44863 4.9798 9.52145 4.90848 9.61013C4.83715 9.69881 4.78512 9.80139 4.75569 9.91132C4.72626 10.0213 4.72009 10.1361 4.73756 10.2486C4.75504 10.361 4.79579 10.4686 4.85719 10.5644C4.9186 10.6602 4.99932 10.7422 5.09419 10.805C5.18907 10.8679 5.29601 10.9102 5.40818 10.9294V10.9386ZM7.29511 5.83212L14.3806 9.92303C14.4736 9.97677 14.5764 10.0117 14.6829 10.0257C14.7895 10.0397 14.8978 10.0326 15.0016 10.0048C15.1054 9.97694 15.2027 9.92894 15.2879 9.8635C15.3732 9.79805 15.4447 9.71646 15.4984 9.62337C15.6063 9.43559 15.6353 9.21269 15.5792 9.00354C15.523 8.79438 15.3862 8.61603 15.1988 8.50757L8.1133 4.41155C8.02017 4.35235 7.91603 4.3126 7.80715 4.29469C7.69827 4.27678 7.58689 4.28108 7.47971 4.30734C7.37253 4.33359 7.27177 4.38125 7.18349 4.44745C7.0952 4.51366 7.02123 4.59703 6.966 4.69257C6.91078 4.7881 6.87546 4.89382 6.86215 5.00337C6.84884 5.11291 6.85783 5.22401 6.88858 5.32999C6.91932 5.43597 6.97119 5.53463 7.04105 5.62004C7.11092 5.70545 7.19734 5.77585 7.29511 5.827V5.83212ZM16.2266 7.16166C16.3026 7.23781 16.3929 7.29825 16.4923 7.33951C16.5916 7.38077 16.6982 7.40206 16.8058 7.40216C16.9134 7.40225 17.0199 7.38115 17.1194 7.34007C17.2188 7.29898 17.3092 7.2387 17.3853 7.16268C17.4615 7.08667 17.5219 6.99639 17.5632 6.89702C17.6045 6.79765 17.6257 6.69112 17.6258 6.58352C17.6259 6.47592 17.6048 6.36936 17.5637 6.26991C17.5227 6.17046 17.4624 6.08009 17.3864 6.00393L11.6008 0.225525C11.4462 0.0784225 11.2403 -0.00248321 11.027 5.81065e-05C10.8136 0.00259942 10.6097 0.0883866 10.4587 0.239129C10.3077 0.389871 10.2215 0.59364 10.2186 0.80699C10.2157 1.02034 10.2962 1.22639 10.4431 1.38121L16.2266 7.16166Z" fill=""/>
</svg>
